<svg width="24" height="23" viewBox="0 0 24 23" fill="none"
    xmlns="http://www.w3.org/2000/svg">
    <path d="M18.6206 17.8099C19.2045 17.8099 19.7112 18.0235 20.1405 18.4507C20.5699 18.8779 20.7845 19.3709 20.7845 19.9296C20.7845 20.4883 20.5699 20.973 20.1405 21.3838C19.7112 21.7946 19.2045 22 18.6206 22C18.0367 22 17.5215 21.7946 17.0749 21.3838C16.6284 20.973 16.4052 20.4883 16.4052 19.9296C16.4052 19.3709 16.6284 18.8779 17.0749 18.4507C17.5215 18.0235 18.0367 17.8099 18.6206 17.8099ZM1 1H4.60656L5.637 3.07042H21.918C22.2272 3.07042 22.4848 3.17723 22.6909 3.39085C22.897 3.60446 23 3.85915 23 4.15493C23 4.18779 22.9485 4.35211 22.8454 4.64789L18.9297 11.4507C18.5176 12.1737 17.8821 12.5352 17.0234 12.5352H8.83138L7.85246 14.2606L7.80094 14.4085C7.80094 14.5728 7.88681 14.6549 8.05855 14.6549H20.7845V16.7746H7.59485C7.01093 16.7746 6.50429 16.561 6.07494 16.1338C5.64559 15.7066 5.43091 15.2136 5.43091 14.6549C5.43091 14.3263 5.51678 13.9977 5.68852 13.669L7.18267 11.0563L3.21546 3.07042H1V1ZM7.59485 17.8099C8.17877 17.8099 8.69399 18.0235 9.14052 18.4507C9.58704 18.8779 9.8103 19.3709 9.8103 19.9296C9.8103 20.4883 9.58704 20.973 9.14052 21.3838C8.69399 21.7946 8.17877 22 7.59485 22C7.01093 22 6.50429 21.7946 6.07494 21.3838C5.64559 20.973 5.43091 20.4883 5.43091 19.9296C5.43091 19.3709 5.64559 18.8779 6.07494 18.4507C6.50429 18.0235 7.01093 17.8099 7.59485 17.8099Z" fill="#444" stroke="#444" stroke-width="0.03125"/>
</svg>
